# xmcd
#
# Track frame offsets: 
#        183
#        15973
#        30200
#        46290
#        59073
#        75545
#        94918
#        111233
#        123168
#        142043
#        161480
#        176448
#        190313
#        209575
#        225643
#        243083
#        262500
#        279378
#        296768
#        316028
#
# Disc length: 4394 seconds
#
# Revision: 4
# Processed by: cddbd v1.5.2PL0 Copyright (c) Steve Scherf et al.
# Submitted via: ExactAudioCopy v1.3
#
DISCID=07112814
DTITLE=Kenny Rogers - Daytime Friends
DYEAR=1993
DGENRE=Country
TTITLE0=The Gambler
TTITLE1=Daytime Friends (And Nightime Lovers)
TTITLE2=Lucille
TTITLE3=Ruby Don't Take Your Love To Town
TTITLE4=Don't Fall In Love With A Dreamer (with Kim Carnes)
TTITLE5=Coward Of The County
TTITLE6=You Decorated My Life
TTITLE7=Reuben James
TTITLE8=She Believes In Me
TTITLE9=Long Arm Of The Law
TTITLE10='Till I Make It On My Own (with Dottie West)
TTITLE11=The Son Of Hickory Holler's Tramp
TTITLE12=Sweet Music Man
TTITLE13=Green Green Grass Of Home
TTITLE14=We've Got Tonight (with Sheena Easton)
TTITLE15=Something's Burning
TTITLE16=Desperado
TTITLE17=Lady
TTITLE18=Abraham, Martin and John
TTITLE19=Everytime Two Fools Collide (with Dottie West)
EXTD=
EXTT0=
EXTT1=
EXTT2=
EXTT3=
EXTT4=with Kim Carnes
EXTT5=
EXTT6=
EXTT7=
EXTT8=
EXTT9=
EXTT10=with Dottie West
EXTT11=
EXTT12=
EXTT13=
EXTT14=with Sheena Easton
EXTT15=
EXTT16=
EXTT17=
EXTT18=
EXTT19=with Dottie West
PLAYORDER=
